<svg width="16" height="16" viewBox="0 0 16 16" fill="currentColor" xmlns="http://www.w3.org/2000/svg">
<path d="M7.45199 13.046C7.51315 13.1348 7.59499 13.2075 7.69045 13.2576C7.78591 13.3078 7.89214 13.334 7.99999 13.334C8.10784 13.334 8.21406 13.3078 8.30953 13.2576C8.40499 13.2075 8.48683 13.1348 8.54799 13.046L14.548 4.37934C14.6174 4.27938 14.6582 4.1623 14.6657 4.04081C14.6733 3.91933 14.6475 3.79809 14.591 3.69027C14.5345 3.58245 14.4495 3.49218 14.3453 3.42925C14.2412 3.36632 14.1217 3.33315 14 3.33334H1.99999C1.87855 3.33385 1.75955 3.36744 1.65578 3.43052C1.552 3.4936 1.46739 3.58377 1.41103 3.69134C1.35468 3.79891 1.32871 3.91981 1.33593 4.04103C1.34314 4.16226 1.38327 4.27922 1.45199 4.37934L7.45199 13.046Z" fill="currentColor"/>
</svg>
