<svg width="16" height="16" viewBox="0 0 16 16" fill="none" xmlns="http://www.w3.org/2000/svg">
    <path d="M16 2.52632V4.21053H13.4737V6.73684H11.7895V4.21053H9.26316V2.52632H11.7895V0H13.4737V2.52632H16ZM8.8421 8.42105C9.17723 8.42094 9.49858 8.28771 9.73547 8.05066C9.97235 7.81362 10.1054 7.49217 10.1053 7.15705C10.1052 6.82193 9.97192 6.50058 9.73487 6.26369C9.49783 6.0268 9.17638 5.89378 8.84126 5.89389C8.67533 5.89395 8.51103 5.92669 8.35775 5.99024C8.20446 6.05379 8.0652 6.14691 7.9479 6.26429C7.83061 6.38166 7.73758 6.52099 7.67413 6.67431C7.61068 6.82764 7.57805 6.99196 7.5781 7.15789C7.57816 7.32383 7.6109 7.48813 7.67445 7.64141C7.738 7.7947 7.83112 7.93396 7.9485 8.05126C8.06587 8.16855 8.2052 8.26158 8.35852 8.32503C8.51185 8.38848 8.67617 8.42111 8.8421 8.42105ZM11.7895 11.1444L11.3575 10.6644C11.1995 10.4885 11.0063 10.3479 10.7904 10.2516C10.5745 10.1553 10.3408 10.1056 10.1044 10.1056C9.86803 10.1056 9.6343 10.1553 9.41841 10.2516C9.20252 10.3479 9.00932 10.4885 8.85137 10.6644L8.29979 11.2792L4.21053 6.73684L1.68421 9.54358V4.21053H7.57895V2.52632H1.68421C1.23753 2.52632 0.809144 2.70376 0.493294 3.01961C0.177443 3.33546 0 3.76385 0 4.21053V14.3158C0 14.7625 0.177443 15.1909 0.493294 15.5067C0.809144 15.8226 1.23753 16 1.68421 16H11.7895C12.2362 16 12.6645 15.8226 12.9804 15.5067C13.2962 15.1909 13.4737 14.7625 13.4737 14.3158V8.42105H11.7895V11.1444Z" fill="white"/>
</svg>
