<svg width="16" height="16" viewBox="0 0 16 16" fill="none" xmlns="http://www.w3.org/2000/svg">
<path d="M8 0.5C6.51664 0.5 5.0666 0.939867 3.83323 1.76398C2.59986 2.58809 1.63856 3.75943 1.07091 5.12987C0.50325 6.50032 0.354725 8.00832 0.644114 9.46318C0.933503 10.918 1.64781 12.2544 2.6967 13.3033C3.7456 14.3522 5.08197 15.0665 6.53683 15.3559C7.99168 15.6453 9.49968 15.4968 10.8701 14.9291C12.2406 14.3614 13.4119 13.4001 14.236 12.1668C15.0601 10.9334 15.5 9.48336 15.5 8C15.5 6.01088 14.7098 4.10322 13.3033 2.6967C11.8968 1.29018 9.98913 0.5 8 0.5ZM8.5 12.125V13C8.5 13.1326 8.44733 13.2598 8.35356 13.3536C8.25979 13.4473 8.13261 13.5 8 13.5C7.86739 13.5 7.74022 13.4473 7.64645 13.3536C7.55268 13.2598 7.5 13.1326 7.5 13V12.125C6.93532 12.0097 6.42781 11.7029 6.06335 11.2565C5.69889 10.81 5.49989 10.2513 5.5 9.675C5.5 9.54239 5.55268 9.41521 5.64645 9.32145C5.74022 9.22768 5.86739 9.175 6 9.175C6.13261 9.175 6.25979 9.22768 6.35356 9.32145C6.44732 9.41521 6.5 9.54239 6.5 9.675C6.5 10.0728 6.65804 10.4544 6.93934 10.7357C7.22065 11.017 7.60218 11.175 8 11.175C8.875 11.175 9.5 10.625 9.5 9.85C9.5 9.075 8.95 8.75 7.9 8.5C5.925 8.05 5.5 7 5.5 6.175C5.50053 5.61505 5.70312 5.0741 6.07054 4.65156C6.43797 4.22902 6.94555 3.95327 7.5 3.875V3C7.5 2.86739 7.55268 2.74021 7.64645 2.64645C7.74022 2.55268 7.86739 2.5 8 2.5C8.13261 2.5 8.25979 2.55268 8.35356 2.64645C8.44733 2.74021 8.5 2.86739 8.5 3V3.875C8.99519 3.97362 9.4489 4.21986 9.80144 4.58132C10.154 4.94278 10.3888 5.40251 10.475 5.9C10.4799 6.02065 10.4409 6.13898 10.3653 6.23314C10.2897 6.3273 10.1826 6.39092 10.0637 6.41225C9.94489 6.43358 9.82234 6.41118 9.71872 6.34919C9.6151 6.2872 9.53741 6.18981 9.5 6.075C9.44104 5.72616 9.26067 5.40938 8.99077 5.18065C8.72086 4.95192 8.37879 4.82595 8.025 4.825C7.15 4.825 6.525 5.375 6.525 6.15C6.525 6.4 6.525 7.125 8.125 7.5C10.2 7.975 10.525 9.15 10.525 9.825C10.5237 10.3887 10.3175 10.9327 9.94504 11.3558C9.57254 11.7789 9.059 12.0523 8.5 12.125Z" fill="currentcolor"/>
</svg>
