<svg width="16" height="16" viewBox="0 0 16 16" fill="currentColor" xmlns="http://www.w3.org/2000/svg">
<path d="M5.49999 0.5C4.51108 0.5 3.54438 0.793245 2.72214 1.34265C1.89989 1.89206 1.25903 2.67295 0.880589 3.58658C0.502151 4.50021 0.403134 5.50555 0.596061 6.47545C0.788987 7.44536 1.26519 8.33627 1.96445 9.03553C2.66372 9.7348 3.55463 10.211 4.52454 10.4039C5.49444 10.5969 6.49977 10.4978 7.4134 10.1194C8.32703 9.74096 9.10793 9.1001 9.65733 8.27785C10.2067 7.45561 10.5 6.48891 10.5 5.5C10.5 4.17392 9.9732 2.90215 9.03552 1.96447C8.09784 1.02678 6.82607 0.5 5.49999 0.5ZM5.99999 8.225V8.5C5.99999 8.63261 5.94731 8.75979 5.85354 8.85355C5.75977 8.94732 5.6326 9 5.49999 9C5.36738 9 5.2402 8.94732 5.14643 8.85355C5.05267 8.75979 4.99999 8.63261 4.99999 8.5V8.225C4.63917 8.11742 4.32266 7.89635 4.09748 7.5946C3.87229 7.29285 3.75043 6.92651 3.74999 6.55C3.74999 6.41739 3.80267 6.29021 3.89643 6.19645C3.9902 6.10268 4.11738 6.05 4.24999 6.05C4.3826 6.05 4.50977 6.10268 4.60354 6.19645C4.69731 6.29021 4.74999 6.41739 4.74999 6.55C4.74999 6.74891 4.829 6.93968 4.96966 7.08033C5.11031 7.22098 5.30107 7.3 5.49999 7.3C5.84999 7.3 6.24999 7.1 6.24999 6.65C6.24999 6.2 6.24999 6.175 5.39999 6C3.97499 5.675 3.77499 4.825 3.77499 4.375C3.77637 4.01028 3.9004 3.65663 4.12713 3.37095C4.35386 3.08527 4.67011 2.88416 5.02499 2.8V2.5C5.02499 2.36739 5.07767 2.24021 5.17143 2.14645C5.2652 2.05268 5.39238 2 5.52499 2C5.6576 2 5.78477 2.05268 5.87854 2.14645C5.97231 2.24021 6.02499 2.36739 6.02499 2.5V2.775C6.33679 2.86769 6.61659 3.04546 6.83298 3.28834C7.04936 3.53122 7.19377 3.8296 7.24999 4.15C7.25484 4.27065 7.21588 4.38898 7.14028 4.48314C7.06469 4.5773 6.95757 4.64092 6.83872 4.66225C6.71987 4.68358 6.59732 4.66118 6.4937 4.59919C6.39008 4.5372 6.31239 4.43981 6.27499 4.325C6.24516 4.14845 6.15316 3.98839 6.0156 3.87376C5.87805 3.75913 5.70402 3.6975 5.52499 3.7C5.17499 3.7 4.77499 3.9 4.77499 4.35C4.77499 4.8 4.77499 4.8 5.62499 5C7.04999 5.325 7.24999 6.15 7.24999 6.625C7.25426 6.994 7.13282 7.35346 6.90564 7.64426C6.67845 7.93505 6.35905 8.13987 5.99999 8.225Z" fill="currentcolor"/>
<path d="M11.5 5.59998C11.4739 7.14993 10.8464 8.62905 9.75001 9.72498C9.84701 9.72276 9.94256 9.74882 10.025 9.79998C10.2037 9.90466 10.3977 9.98059 10.6 10.025C12.025 10.35 12.225 11.175 12.225 11.65C12.2236 12.0147 12.0996 12.3683 11.8729 12.654C11.6461 12.9397 11.3299 13.1408 10.975 13.225V13.5C10.975 13.6326 10.9223 13.7598 10.8286 13.8535C10.7348 13.9473 10.6076 14 10.475 14C10.3424 14 10.2152 13.9473 10.1215 13.8535C10.0277 13.7598 9.97501 13.6326 9.97501 13.5V13.225C9.61419 13.1174 9.29768 12.8963 9.0725 12.5946C8.84731 12.2928 8.72545 11.9265 8.72501 11.55C8.72501 11.4174 8.77768 11.2902 8.87145 11.1964C8.96522 11.1027 9.0924 11.05 9.22501 11.05C9.35761 11.05 9.48479 11.1027 9.57856 11.1964C9.67233 11.2902 9.72501 11.4174 9.72501 11.55C9.72501 11.7489 9.80402 11.9397 9.94468 12.0803C10.0853 12.221 10.2761 12.3 10.475 12.3C10.825 12.3 11.225 12.1 11.225 11.65C11.225 11.2 11.225 11.175 10.375 11C10.0679 10.9388 9.77258 10.8291 9.50001 10.675C9.41788 10.6226 9.35283 10.5474 9.31286 10.4586C9.27289 10.3697 9.25973 10.2712 9.27501 10.175C8.23307 11.0159 6.93887 11.4826 5.60001 11.5C5.78088 12.3849 6.19807 13.2043 6.80727 13.8711C7.41647 14.5379 8.19491 15.0273 9.05991 15.2872C9.92491 15.5471 10.8442 15.5679 11.72 15.3472C12.5959 15.1266 13.3956 14.6729 14.0343 14.0342C14.6729 13.3956 15.1267 12.5958 15.3473 11.72C15.5679 10.8441 15.5471 9.92488 15.2872 9.05988C15.0273 8.19488 14.538 7.41643 13.8711 6.80724C13.2043 6.19804 12.3849 5.78085 11.5 5.59998ZM11.825 9.74998H11.75C11.6294 9.75134 11.5124 9.70908 11.4205 9.63098C11.3286 9.55288 11.2681 9.4442 11.25 9.32498C11.2237 9.16245 11.1446 9.01311 11.025 8.89998C10.9487 8.80637 10.9089 8.68832 10.9129 8.56764C10.9169 8.44696 10.9644 8.33179 11.0467 8.24342C11.1289 8.15505 11.2404 8.09943 11.3605 8.08685C11.4806 8.07427 11.6012 8.10557 11.7 8.17498C11.9899 8.43748 12.1836 8.78955 12.25 9.17498C12.2606 9.24073 12.258 9.30795 12.2423 9.37267C12.2266 9.4374 12.1981 9.49834 12.1585 9.5519C12.1189 9.60546 12.069 9.65058 12.0117 9.68459C11.9545 9.71861 11.891 9.74084 11.825 9.74998Z" fill="currentcolor"/>
</svg>
