<svg width="24" height="28" viewBox="0 0 24 28" fill="none" xmlns="http://www.w3.org/2000/svg">
<path d="M22.4812 10.1435H21.8305V7.00342C21.8305 6.9837 21.8274 6.96413 21.8248 6.94411C21.8237 6.81955 21.7841 6.69698 21.6987 6.6001L16.4737 0.631693C16.4721 0.630012 16.4705 0.629518 16.4695 0.627986C16.4384 0.593041 16.402 0.564127 16.3636 0.539216C16.3522 0.531456 16.3408 0.52508 16.3288 0.518506C16.2956 0.500465 16.2603 0.485291 16.224 0.474368C16.2142 0.471798 16.2054 0.467745 16.1955 0.465076C16.156 0.455784 16.115 0.449951 16.0736 0.449951H3.23232C2.64592 0.449951 2.1696 0.926868 2.1696 1.51272V10.1432H1.519C0.680129 10.1432 -3.05176e-05 10.8232 -3.05176e-05 11.6621V19.561C-3.05176e-05 20.3996 0.680129 21.0802 1.519 21.0802H2.1696V26.4874C2.1696 27.0733 2.64592 27.5501 3.23232 27.5501H20.7677C21.3536 27.5501 21.8305 27.0733 21.8305 26.4874V21.0802H22.4812C23.3197 21.0802 24 20.3999 24 19.5613V11.6624C24 10.8232 23.3197 10.1435 22.4812 10.1435ZM3.23232 1.51272H15.5422V6.94994C15.5422 7.24354 15.7803 7.48133 16.0735 7.48133H20.7677V10.1435H3.23232V1.51272ZM11.2326 15.9294C9.91386 15.4701 9.05468 14.7405 9.05468 13.5871C9.05468 12.2326 10.1846 11.1964 12.0565 11.1964C12.9515 11.1964 13.6108 11.3848 14.0814 11.5971L13.6815 13.0453C13.3637 12.8918 12.7987 12.6681 12.0213 12.6681C11.2445 12.6681 10.8677 13.0215 10.8677 13.4335C10.8677 13.9399 11.3149 14.1635 12.3397 14.5521C13.7405 15.07 14.3998 15.7996 14.3998 16.9183C14.3998 18.2484 13.3756 19.3791 11.1974 19.3791C10.291 19.3791 9.39582 19.143 8.94861 18.8962L9.31338 17.4126C9.79637 17.6604 10.5379 17.9072 11.3035 17.9072C12.1275 17.9072 12.5633 17.5657 12.5633 17.0473C12.563 16.5526 12.186 16.2703 11.2326 15.9294ZM1.88382 15.411C1.88382 12.7033 3.81511 11.1964 6.21625 11.1964C7.14656 11.1964 7.85292 11.3848 8.17103 11.5498L7.80567 12.9741C7.4409 12.8216 6.93418 12.6805 6.2986 12.6805C4.87403 12.6805 3.76766 13.5393 3.76766 15.305C3.76766 16.8945 4.70929 17.895 6.31096 17.895C6.85203 17.895 7.45256 17.7774 7.80567 17.6361L8.07667 19.0371C7.7469 19.2022 7.0054 19.3791 6.0399 19.3791C3.29672 19.3791 1.88382 17.6714 1.88382 15.411ZM20.7677 26.1993H3.23232V21.0802H20.7677V26.1993ZM19.5807 19.2609H17.4851L14.9421 11.3261H16.9086L17.8737 14.6819C18.1445 15.6233 18.3917 16.5298 18.5805 17.5188H18.6155C18.8156 16.565 19.0626 15.6232 19.3335 14.7167L20.3461 11.3261H22.2539L19.5807 19.2609Z" fill="#064780"/>
</svg>
