<svg width="12" height="10" viewBox="0 0 12 10" fill="none" xmlns="http://www.w3.org/2000/svg">
<path d="M11.1994 9.03125L6.32442 0.59375C6.25176 0.468359 6.12637 0.40625 5.99981 0.40625C5.87325 0.40625 5.74668 0.468359 5.6752 0.59375L0.800199 9.03125C0.656059 9.28203 0.836527 9.59375 1.12481 9.59375H10.8748C11.1631 9.59375 11.3436 9.28203 11.1994 9.03125ZM5.62481 3.875C5.62481 3.82344 5.667 3.78125 5.71856 3.78125H6.28106C6.33262 3.78125 6.37481 3.82344 6.37481 3.875V6.03125C6.37481 6.08281 6.33262 6.125 6.28106 6.125H5.71856C5.667 6.125 5.62481 6.08281 5.62481 6.03125V3.875ZM5.99981 8C5.85261 7.997 5.71246 7.93641 5.60942 7.83125C5.50638 7.72609 5.44867 7.58473 5.44867 7.4375C5.44867 7.29027 5.50638 7.14891 5.60942 7.04375C5.71246 6.93859 5.85261 6.878 5.99981 6.875C6.147 6.878 6.28716 6.93859 6.3902 7.04375C6.49323 7.14891 6.55094 7.29027 6.55094 7.4375C6.55094 7.58473 6.49323 7.72609 6.3902 7.83125C6.28716 7.93641 6.147 7.997 5.99981 8Z" fill="#FF4D4F"/>
</svg>
