<svg width="16" height="16" viewBox="0 0 16 16" fill="none" xmlns="http://www.w3.org/2000/svg">
<path d="M8 0.5C6.51664 0.5 5.0666 0.939867 3.83323 1.76398C2.59986 2.58809 1.63856 3.75943 1.07091 5.12987C0.50325 6.50032 0.354725 8.00832 0.644114 9.46318C0.933503 10.918 1.64781 12.2544 2.6967 13.3033C3.7456 14.3522 5.08197 15.0665 6.53683 15.3559C7.99168 15.6453 9.49968 15.4968 10.8701 14.9291C12.2406 14.3614 13.4119 13.4001 14.236 12.1668C15.0601 10.9334 15.5 9.48336 15.5 8C15.5 6.01088 14.7098 4.10322 13.3033 2.6967C11.8968 1.29018 9.98913 0.5 8 0.5ZM11.125 4.275L8.525 8H10C10.1326 8 10.2598 8.05268 10.3536 8.14645C10.4473 8.24021 10.5 8.36739 10.5 8.5C10.5 8.63261 10.4473 8.75979 10.3536 8.85355C10.2598 8.94732 10.1326 9 10 9H8.5V10H10C10.1326 10 10.2598 10.0527 10.3536 10.1464C10.4473 10.2402 10.5 10.3674 10.5 10.5C10.5 10.6326 10.4473 10.7598 10.3536 10.8536C10.2598 10.9473 10.1326 11 10 11H8.5V13C8.5 13.1326 8.44733 13.2598 8.35356 13.3536C8.25979 13.4473 8.13261 13.5 8 13.5C7.86739 13.5 7.74022 13.4473 7.64645 13.3536C7.55268 13.2598 7.5 13.1326 7.5 13V11H6C5.86739 11 5.74022 10.9473 5.64645 10.8536C5.55268 10.7598 5.5 10.6326 5.5 10.5C5.5 10.3674 5.55268 10.2402 5.64645 10.1464C5.74022 10.0527 5.86739 10 6 10H7.5V9H6C5.86739 9 5.74022 8.94732 5.64645 8.85355C5.55268 8.75979 5.5 8.63261 5.5 8.5C5.5 8.36739 5.55268 8.24021 5.64645 8.14645C5.74022 8.05268 5.86739 8 6 8H7.45L4.875 4.275C4.79875 4.1656 4.76909 4.03039 4.79253 3.89911C4.81597 3.76784 4.8906 3.65125 5 3.575C5.10941 3.49875 5.24462 3.46908 5.37589 3.49253C5.50717 3.51597 5.62375 3.5906 5.7 3.7L8 7.025L10.3 3.725C10.3763 3.6156 10.4928 3.54097 10.6241 3.51753C10.7554 3.49408 10.8906 3.52375 11 3.6C11.1094 3.67625 11.184 3.79284 11.2075 3.92411C11.2309 4.05539 11.2013 4.1906 11.125 4.3V4.275Z" fill="currentcolor"/>
</svg>
