<svg width="14" height="14" fill="none" xmlns="http://www.w3.org/2000/svg">
  <path d="M6.91387 9.03711c.01023.01307.0233.02364.03822.03092.01493.00727.03131.01104.04791.01104.0166 0 .03298-.00377.04791-.01104.01492-.00728.02799-.01785.03822-.03092L8.61738 7.0998c.05606-.07109.00547-.17636-.08613-.17636H7.51816V2.29688c0-.06016-.04921-.10938-.10937-.10938h-.82031c-.06016 0-.10938.04922-.10938.10938v4.62519H5.46875c-.0916 0-.14219.10527-.08613.17637l1.53125 1.93867zm5.09003-.47852h-.8203c-.0602 0-.1094.04922-.1094.10938v2.10543H2.92578V8.66797c0-.06016-.04922-.10938-.10937-.10938h-.82032c-.06015 0-.10937.04922-.10937.10938V11.375c0 .242.19551.4375.4375.4375h9.35158c.242 0 .4375-.1955.4375-.4375V8.66797c0-.06016-.0492-.10938-.1094-.10938z" fill="currentColor"/>
</svg>
