<svg width="14" height="14" fill="none" xmlns="http://www.w3.org/2000/svg">
  <path d="M9.60987 3.15457l1.23553 1.23491m.238 4.36042v1.75c0 .3094-.1229.6062-.3417.825s-.5156.3417-.82499.3417H3.50004c-.30942 0-.60616-.1229-.82496-.3417-.21879-.2188-.34171-.5156-.34171-.825V4.08324c0-.30942.12292-.60617.34171-.82496.2188-.21879.51554-.34171.82496-.34171h1.75m5.15436-.84992L7.06362 5.4074c-.17261.17237-.29034.39199-.33833.63117l-.30858 1.54466 1.54466-.30916c.23917-.04784.4585-.16509.63117-.33775l3.34076-3.34075c.1004-.10039.18-.21957.2343-.35074.0544-.13117.0823-.27175.0823-.41372 0-.14198-.0279-.28256-.0823-.41372-.0543-.13117-.1339-.25035-.2343-.35074-.1004-.10039-.2196-.18002-.3507-.23436-.1312-.05433-.2718-.08229-.4138-.08229-.1419 0-.2825.02796-.4137.08229-.1312.05434-.2503.13397-.3507.23436z" stroke="currentColor" stroke-linecap="round" stroke-linejoin="round" />
</svg>
