<svg width="14" height="14" fill="none" xmlns="http://www.w3.org/2000/svg">
  <path d="M6.41663 5.83317H5.24996v1.75h-1.75v1.16667h1.75v1.74996h1.16667V8.74984h1.75V7.58317h-1.75v-1.75z" fill="currentColor"/>
  <path d="M2.33329 12.8332h7c.64342 0 1.16671-.5233 1.16671-1.1667v-7c0-.64341-.52329-1.16666-1.16671-1.16666h-7c-.64341 0-1.16666.52325-1.16666 1.16666v7c0 .6434.52325 1.1667 1.16666 1.1667zm0-8.1667h7l.00117 7H2.33329v-7z" fill="currentColor"/>
  <path d="M11.6666 1.1665H4.66663v1.16667h6.99997v7h1.1667v-7c0-.64342-.5233-1.16667-1.1667-1.16667z" fill="currentColor"/>
</svg>
