<svg width="14" height="14" viewBox="0 0 14 14" fill="none" xmlns="http://www.w3.org/2000/svg">
<path d="M4.92188 2.51562H4.8125C4.87266 2.51562 4.92188 2.46641 4.92188 2.40625V2.51562H9.07812V2.40625C9.07812 2.46641 9.12734 2.51562 9.1875 2.51562H9.07812V3.5H10.0625V2.40625C10.0625 1.92363 9.67012 1.53125 9.1875 1.53125H4.8125C4.32988 1.53125 3.9375 1.92363 3.9375 2.40625V3.5H4.92188V2.51562ZM11.8125 3.5H2.1875C1.94551 3.5 1.75 3.69551 1.75 3.9375V4.375C1.75 4.43516 1.79922 4.48438 1.85938 4.48438H2.68516L3.02285 11.6348C3.04473 12.101 3.43027 12.4688 3.89648 12.4688H10.1035C10.5711 12.4688 10.9553 12.1023 10.9771 11.6348L11.3148 4.48438H12.1406C12.2008 4.48438 12.25 4.43516 12.25 4.375V3.9375C12.25 3.69551 12.0545 3.5 11.8125 3.5ZM9.99824 11.4844H4.00176L3.6709 4.48438H10.3291L9.99824 11.4844Z" fill="currentColor"/>
</svg>
