<svg width="16" height="16" viewBox="0 0 16 16" fill="none" xmlns="http://www.w3.org/2000/svg">
<path fill-rule="evenodd" clip-rule="evenodd" d="M8 15.5C12.1421 15.5 15.5 12.1421 15.5 8C15.5 3.85786 12.1421 0.5 8 0.5C3.85786 0.5 0.5 3.85786 0.5 8C0.5 12.1421 3.85786 15.5 8 15.5ZM2.47 5.95999H3.025L4.065 8.83999H4.075L5.155 5.95999H5.68L4.285 9.49999H3.835L2.47 5.95999ZM6.10442 5.95999H6.73442L8.68442 8.86999H8.69442V5.95999H9.17442V9.49999H8.56441L6.59442 6.58999H6.58442V9.49999H6.10442V5.95999ZM11.2389 5.95999H10.0039V9.49999H11.1589C11.4756 9.49999 11.7539 9.44999 11.9939 9.34999C12.2372 9.24999 12.4406 9.11832 12.6039 8.95499C12.7672 8.78832 12.8906 8.59999 12.9739 8.38999C13.0572 8.17666 13.0989 7.95666 13.0989 7.72999C13.0989 7.61999 13.0872 7.49999 13.0639 7.36999C13.0406 7.23999 13.0022 7.10999 12.9489 6.97999C12.8956 6.84999 12.8222 6.72332 12.7289 6.59999C12.6389 6.47666 12.5239 6.36832 12.3839 6.27499C12.2472 6.17832 12.0839 6.10166 11.8939 6.04499C11.7072 5.98832 11.4889 5.95999 11.2389 5.95999ZM11.0889 9.04999H10.4839V6.40999H11.2039C11.4906 6.40999 11.7239 6.45832 11.9039 6.55499C12.0839 6.64832 12.2239 6.76332 12.3239 6.89999C12.4272 7.03666 12.4972 7.18166 12.5339 7.33499C12.5706 7.48499 12.5889 7.61666 12.5889 7.72999C12.5889 7.94999 12.5489 8.14332 12.4689 8.30999C12.3889 8.47332 12.2806 8.60999 12.1439 8.71999C12.0072 8.82999 11.8472 8.91332 11.6639 8.96999C11.4839 9.02332 11.2922 9.04999 11.0889 9.04999Z" fill="currentcolor"/>
</svg>
