<svg width="80" height="80" fill="none" xmlns="http://www.w3.org/2000/svg">
  <g clip-path="url(#projectEmptyState)">
    <path d="M0 0h80v80H0z"/>
    <path d="M38.8095 13.5735h.0134L62.976 7.0953c1.4235-.37525 2.8837.47106 3.2657 1.89276l3.4389 12.84964 1.5596 5.8253v.0134l7.3312 27.3254c.3814 1.4205-.4594 2.8819-1.8799 3.2657l-14.7021 3.9319-23.1799-48.6259z" fill="#7FABFA"/>
    <path d="M34.6774 14.6076h.0135L58.844 8.12997c1.4235-.37586 2.883.47045 3.2656 1.89273l3.4389 12.8497 1.5596 5.8247v.0134l7.3313 27.3254c.3813 1.4205-.4595 2.8818-1.88 3.2656l-14.7021 3.932-23.1799-48.6259z" fill="#A4C2F7"/>
    <path d="M71.9065 25.1966L58.1105 76.702c-.3838 1.4198-1.8452 2.2613-3.2657 1.8793L3.34009 64.7853c-.36-.1007-.6956-.2728-.98665-.5065-.8158-.6632-1.16543-1.7438-.89329-2.7592L12.5507 20.1182l3.8386-11.63665c.6266-.42041 1.4052-.54672 2.1325-.34658L67.0013 21.1182l3.0258.8128c1.4199.3838 2.2613 1.8451 1.8794 3.2656z" fill="#A4C2F7"/>
    <path d="M67.894 23.8774L54.0986 75.3822c-.3838 1.4204-1.8452 2.2613-3.2663 1.8793L2.35344 64.2788c-.8158-.6632-1.16543-1.7438-.89329-2.7592L12.5507 20.1182l3.8386-11.63665c.6266-.42041 1.4052-.54672 2.1325-.34658L67.0013 21.1182c.8158.6633 1.1654 1.7439.8927 2.7592z" fill="#D4E1F4"/>
    <path d="M39.9694 41.6854l-8.7847-2.9325 7.5448-7.5442 2.9325 8.7841c.1568.4802.0305 1.0086-.327 1.3662-.357.3569-.8854.4832-1.3656.3264z" fill="#fff"/>
    <path d="M14.2298 6.70892L6.68563 14.2531l-3.7727-3.7721c-2.083131-2.08312-2.083131-5.46104 0-7.54417 2.08374-2.083742 5.46166-2.083742 7.54477 0l3.7721 3.77209z" fill="#E3E7F2"/>
    <path d="M38.7295 31.2085l-2.8257 2.8258v.0134l-1.8794 1.8793h-.0134l-2.8263 2.8257-20.727-20.727 2.8392-2.8263 1.8793-1.8793 2.8257-2.8391 20.7276 20.7275z" fill="#A4C2F7"/>
    <path d="M6.68621 14.2532l7.54419-7.54422 3.7721 3.77212-7.5442 7.5441-3.77209-3.772z" fill="#fff"/>
    <path d="M10.6841 14.2531L6.91202 10.481C5.64592 9.21616 5.0992 7.40028 5.45554 5.64665c.35695-1.75364 1.56998-3.21196 3.22965-3.88193C6.33297.808582 3.63295 1.6433 2.23078 3.75999c-1.401572 2.1173-1.11601 4.92898.68217 6.72101l3.7727 3.7721 3.77205 3.7727 1.9996-1.9995-1.7732-1.7732zM57.1372 78.1243L7.33856 64.7853c-.35939-.1007-.69499-.2727-.98604-.5064-.8158-.6633-1.16543-1.7439-.8933-2.7592L16.5491 20.1182l-4.0918-4.0918-1.9995 1.9995 2.0929 2.0923L1.46015 61.5197c-.27214 1.0153.07749 2.0959.89329 2.7592.29105.2337.62665.4057.98665.5064l51.50471 13.796c.7938.2124 1.6414.0433 2.2924-.457zM58.844 8.13016L40.6876 13.0006l1.9996.5332 20.1552-5.40364c.1898-.04882.3844-.07566.5797-.08176l1.8397-.49302c-.6511-.49607-1.4937-.6657-2.2858-.46007l-3.5524.95309c-.1958.0061-.3905.03294-.5796.08176z" fill="#fff"/>
    <path d="M13.8381 20.4635L9.35391 37.2012 2.74817 61.865l-2.575536-.6907 6.606346-24.662 4.48352-16.7389 2.5756.6901z" fill="#fff"/>
    <path d="M10.7988 29.5435c-.0585-.0672-.1263-.1257-.2013-.1745-.0635-.055-.1349-.0995-.2117-.1331-.0806-.0378-.1642-.0695-.2496-.0951-.52049-.152-1.08124.0402-1.39914.4802-.32339.4283-.36427 1.0074-.10434 1.4766.09214.1495.21112.2794.35207.3838.13668.108.2935.1873.4613.2349.52536.1471 1.08671-.0403 1.41861-.4735.3314-.4326.3655-1.0245.0861-1.4925l-.152-.2068z" fill="#428DFF"/>
    <path d="M55.5337 80.006c1.8073-.0048 3.3889-1.2154 3.8654-2.9587l3.6861-13.7618 13.9595-3.7318c2.1271-.5785 3.3865-2.7666 2.8196-4.8961l-7.2378-26.9763.5729-2.1326c.5181-1.9641-.5192-4.0045-2.4114-4.7441L67.5291 8.63902c-.5833-2.12523-2.7659-3.38646-4.8985-2.8312L38.8241 12.1939 18.8617 6.84206c-.8183-.22454-1.6872-.17756-2.4761.13363l-4.987-4.9784C9.71761.301013 7.25801-.366516 4.95033.247928 2.64266.862372.840206 2.66421.225151 4.97189-.389904 7.27956.276406 9.73977 1.97208 11.4208l9.08972 9.0897-1.177 4.4134c-.12569.4607.00488.9537.3423 1.2918.3374.338.8298.4698 1.2911.3453.4607-.1245.8201-.4863.9415-.9482l.7823-2.9221L30.2506 39.698c.1391.1361.3063.2392.4905.3027.0104 0 .0189.0146.0305.0183l8.7804 2.9325c.2746.0903.5614.1348.85.1336.5022-.0018.9934-.1464 1.4156-.4174L57.147 46.784c.1129.0311.2294.047.3466.0463.6687 0 1.2337-.496 1.3204-1.1593.0872-.6632-.3307-1.2881-.9769-1.4607L43.0416 40.238c-.0134-.2263-.0543-.4503-.1226-.6669l-2.9325-8.781c0-.0122-.0147-.0201-.0202-.0323-.0634-.1825-.1659-.349-.3014-.4875L19.0618 9.65984 69.6751 23.2173c.3423.0915.6339.3148.8109.6217.1769.3063.2245.6706.133 1.0129l-13.7936 51.498c-.0909.3423-.3148.6346-.6217.8115-.307.177-.6718.2246-1.0135.1324L3.69154 63.499c-.71085-.1897-1.1337-.9189-.94515-1.6303l6.95292-25.955c.1257-.4606-.00488-.9537-.34231-1.2917-.33742-.3386-.82983-.4704-1.29112-.346-.46129.1245-.82069.4864-.94211.9489L.173896 61.1706c-.56624 2.1307.694378 4.3194 2.822054 4.8985L54.4958 79.8675c.338.0922.687.1392 1.0379.1385zm21.7514-24.6595c.1886.7072-.2282 1.4345-.9335 1.6292l-12.4683 3.3321 7.3593-27.473 6.0425 22.5117zM63.3128 8.3858c.3435-.09396.7102-.04637 1.0184.1318.3081.17756.532.47166.6223.8158l2.8434 10.6213-23.8236-6.3824 19.3395-5.1865zM34.9611 33.1015L23.6509 21.7901c-.5205-.5205-1.3649-.5205-1.8854.0006-.5205.5205-.5199 1.3649.0012 1.8854l11.3108 11.3084-1.8842 1.8866-18.8519-18.8519 1.8848-1.8848 3.769 3.7709c.3374.3368.828.4686 1.2887.3447.4601-.1233.8195-.4826.9427-.9427.1233-.4601-.0079-.9513-.3447-1.2881l-3.7697-3.7696 1.8849-1.8861 18.8488 18.8519-1.8848 1.8861zM8.57049 14.2496l5.65571-5.65573 1.8848 1.88483-5.6545 5.6557-1.88601-1.8848zm-5.8839-7.54055c0-1.61757.97445-3.07649 2.46876-3.69521 1.49492-.61871 3.215-.27641 4.35847.86767l2.82758 2.82754-5.65574 5.65565L3.8569 9.53598c-.75173-.74807-1.17336-1.76584-1.17031-2.82693zM33.659 38.1732l4.4841-4.4909 2.243 6.729-6.7271-2.2381z" fill="#428DFF"/>
    <path d="M61.6349 31.3753c.6687-.0007 1.2338-.4967 1.321-1.16.0867-.6626-.3313-1.2881-.9769-1.4607l-18.9587-5.0797c-.4649-.1385-.9677-.0134-1.3137.3264-.3459.3393-.4802.8402-.3508 1.307.1293.4674.5028.8274.9738.9403l18.9599 5.0809c.1129.0305.2288.0458.3454.0458zM46.33 35.6057l12.8899 3.4487c.4625.1318.961.0037 1.3033-.335.3417-.3386.4747-.8359.3472-1.3003-.1275-.4643-.4955-.8237-.9629-.9402l-12.8899-3.4481c-.4631-.1318-.961-.0043-1.3033.335-.3423.3386-.4747.8359-.3472 1.3002.1275.4644.4955.8238.9629.9397zM17.7408 44.5007c.1135.0299.2294.0452.3466.0452.6693.0006 1.235-.4955 1.3222-1.1587.0873-.6633-.3307-1.2887-.9769-1.462l-3.8654-1.0355c-.4637-.1354-.9647-.0097-1.3088.3295-.3442.3387-.4784.8372-.3503 1.3034.1282.4655.4979.8255.9672.9408l3.8654 1.0373zM55.0792 54.5034c.1129.0305.2289.0464.3454.0464.6694 0 1.235-.4955 1.3222-1.1587.0873-.6633-.3307-1.2887-.9768-1.462l-29.6142-7.9335c-.6871-.1342-1.3607.2868-1.5425.9629-.1812.676.1916 1.3777.8536 1.6053l29.6123 7.9396zM10.8672 49.5579c-.1904.7109.2319 1.4406.9421 1.6316l3.8655 1.0343c.1128.0311.2288.0469.3453.0463.6694.0006 1.235-.4954 1.3223-1.1587.0872-.6632-.3308-1.2887-.9769-1.4614L12.5 48.614c-.3417-.0916-.706-.0434-1.0123.1336-.3063.1769-.5296.4686-.6205.8103zM22.4545 52.6623c-.1898.7102.2318 1.4406.9421 1.6316l29.6129 7.9347c.1129.0311.2294.047.3466.047.6687-.0006 1.2337-.4967 1.321-1.16.0866-.6632-.3313-1.288-.9775-1.4607l-29.6123-7.9353c-.3417-.0915-.7054-.0439-1.0117.133-.3063.177-.5296.468-.6211.8097z" fill="#428DFF"/>
  </g>
  <defs>
    <clipPath id="projectEmptyState">
      <path fill="#fff" d="M0 0h80v80H0z"/>
    </clipPath>
  </defs>
</svg>
