<svg width="16" height="16" viewBox="0 0 16 16" fill="currentColor" xmlns="http://www.w3.org/2000/svg">
<path d="M11.725 0.5L10.25 1.5L8.75 0.5L7.25 1.5L5.75 0.5L4.25 1.5L2.75 0.5V14L4.275 15.5L5.775 14.5L7.275 15.5L8.775 14.5L10.275 15.5L11.775 14.5L13.275 15.5V2L11.725 0.5ZM5.75 11.5H4.75C4.61739 11.5 4.49021 11.4473 4.39645 11.3536C4.30268 11.2598 4.25 11.1326 4.25 11C4.25 10.8674 4.30268 10.7402 4.39645 10.6464C4.49021 10.5527 4.61739 10.5 4.75 10.5H5.75C5.88261 10.5 6.00979 10.5527 6.10355 10.6464C6.19732 10.7402 6.25 10.8674 6.25 11C6.25 11.1326 6.19732 11.2598 6.10355 11.3536C6.00979 11.4473 5.88261 11.5 5.75 11.5ZM6.75 9.5H4.75C4.61739 9.5 4.49021 9.44732 4.39645 9.35355C4.30268 9.25979 4.25 9.13261 4.25 9C4.25 8.86739 4.30268 8.74021 4.39645 8.64645C4.49021 8.55268 4.61739 8.5 4.75 8.5H6.75C6.88261 8.5 7.00979 8.55268 7.10355 8.64645C7.19732 8.74021 7.25 8.86739 7.25 9C7.25 9.13261 7.19732 9.25979 7.10355 9.35355C7.00979 9.44732 6.88261 9.5 6.75 9.5ZM6.75 7.5H4.75C4.61739 7.5 4.49021 7.44732 4.39645 7.35355C4.30268 7.25979 4.25 7.13261 4.25 7C4.25 6.86739 4.30268 6.74021 4.39645 6.64645C4.49021 6.55268 4.61739 6.5 4.75 6.5H6.75C6.88261 6.5 7.00979 6.55268 7.10355 6.64645C7.19732 6.74021 7.25 6.86739 7.25 7C7.25 7.13261 7.19732 7.25979 7.10355 7.35355C7.00979 7.44732 6.88261 7.5 6.75 7.5ZM7.25 5.5H4.75C4.61739 5.5 4.49021 5.44732 4.39645 5.35355C4.30268 5.25979 4.25 5.13261 4.25 5C4.25 4.86739 4.30268 4.74021 4.39645 4.64645C4.49021 4.55268 4.61739 4.5 4.75 4.5H7.25C7.38261 4.5 7.50979 4.55268 7.60355 4.64645C7.69732 4.74021 7.75 4.86739 7.75 5C7.75 5.13261 7.69732 5.25979 7.60355 5.35355C7.50979 5.44732 7.38261 5.5 7.25 5.5ZM10.5 9.65V9.85C10.5 9.98261 10.4473 10.1098 10.3536 10.2036C10.2598 10.2973 10.1326 10.35 10 10.35C9.86739 10.35 9.74021 10.2973 9.64645 10.2036C9.55268 10.1098 9.5 9.98261 9.5 9.85V9.65C9.13918 9.54242 8.82268 9.32135 8.59749 9.0196C8.3723 8.71784 8.25044 8.35151 8.25 7.975C8.25 7.84239 8.30268 7.71521 8.39645 7.62145C8.49021 7.52768 8.61739 7.475 8.75 7.475C8.88261 7.475 9.00979 7.52768 9.10355 7.62145C9.19732 7.71521 9.25 7.84239 9.25 7.975C9.25 8.17391 9.32902 8.36468 9.46967 8.50533C9.61032 8.64598 9.80109 8.725 10 8.725C10.375 8.725 10.75 8.525 10.75 8.075C10.75 7.625 10.75 7.6 9.9 7.425C8.45 7.075 8.25 6.25 8.25 5.775C8.25138 5.41028 8.37541 5.05663 8.60214 4.77095C8.82888 4.48527 9.14512 4.28416 9.5 4.2V4C9.5 3.86739 9.55268 3.74021 9.64645 3.64645C9.74021 3.55268 9.86739 3.5 10 3.5C10.1326 3.5 10.2598 3.55268 10.3536 3.64645C10.4473 3.74021 10.5 3.86739 10.5 4V4.2C10.8118 4.29269 11.0916 4.47046 11.308 4.71334C11.5244 4.95622 11.6688 5.2546 11.725 5.575C11.7471 5.64293 11.7544 5.71482 11.7465 5.78581C11.7385 5.85681 11.7154 5.92527 11.6787 5.98658C11.642 6.04789 11.5926 6.10063 11.5338 6.14124C11.475 6.18186 11.4082 6.2094 11.3379 6.22202C11.2676 6.23465 11.1954 6.23205 11.1262 6.21441C11.0569 6.19678 10.9923 6.16451 10.9366 6.11978C10.8809 6.07505 10.8354 6.0189 10.8032 5.95512C10.771 5.89133 10.7529 5.82139 10.75 5.75C10.7202 5.57345 10.6282 5.41339 10.4906 5.29876C10.3531 5.18413 10.179 5.1225 10 5.125C9.625 5.125 9.25 5.325 9.25 5.775C9.25 6.225 9.25 6.225 10.1 6.425C11.525 6.75 11.75 7.6 11.75 8.075C11.7486 8.43972 11.6246 8.79337 11.3979 9.07905C11.1711 9.36473 10.8549 9.56584 10.5 9.65Z" fill="currentcolor"/>
</svg>
